<svg xmlns="http://www.w3.org/2000/svg" viewBox="0 0 1920 1080" preserveAspectRatio="xMidYMid slice">
  <defs>
    <linearGradient id="lg-sky" x1="0%" y1="0%" x2="100%" y2="100%">
      <stop offset="0%" stop-color="#E8FAFF"/>
      <stop offset="45%" stop-color="#FFF8F0"/>
      <stop offset="100%" stop-color="#FFF5EB"/>
    </linearGradient>
    <linearGradient id="lg-sun" x1="0%" y1="0%" x2="100%" y2="100%">
      <stop offset="0%" stop-color="#FFCF8A"/>
      <stop offset="100%" stop-color="#FF9F43"/>
    </linearGradient>
    <linearGradient id="lg-hill1" x1="0%" y1="0%" x2="0%" y2="100%">
      <stop offset="0%" stop-color="#7EECD4"/>
      <stop offset="100%" stop-color="#1DD1A1"/>
    </linearGradient>
    <linearGradient id="lg-hill2" x1="0%" y1="0%" x2="0%" y2="100%">
      <stop offset="0%" stop-color="#FFC8F0"/>
      <stop offset="100%" stop-color="#FF9FF3"/>
    </linearGradient>
    <radialGradient id="lg-glow" cx="50%" cy="50%" r="50%">
      <stop offset="0%" stop-color="#48DBFB" stop-opacity="0.35"/>
      <stop offset="100%" stop-color="#48DBFB" stop-opacity="0"/>
    </radialGradient>
  </defs>
  <rect width="1920" height="1080" fill="url(#lg-sky)"/>
  <ellipse cx="260" cy="220" rx="420" ry="320" fill="url(#lg-glow)"/>
  <ellipse cx="1650" cy="180" rx="140" ry="140" fill="url(#lg-sun)" opacity="0.92"/>
  <ellipse cx="1650" cy="200" rx="180" ry="40" fill="#FF9F43" opacity="0.12"/>
  <path d="M0 720 Q480 600 960 680 T1920 640 V1080 H0 Z" fill="url(#lg-hill1)" opacity="0.55"/>
  <path d="M0 780 Q640 700 1280 760 T1920 700 V1080 H0 Z" fill="#48DBFB" opacity="0.18"/>
  <path d="M0 820 Q520 760 1100 820 T1920 780 V1080 H0 Z" fill="url(#lg-hill2)" opacity="0.35"/>
  <g fill="#48DBFB" opacity="0.2">
    <ellipse cx="320" cy="280" rx="90" ry="32"/>
    <ellipse cx="480" cy="300" rx="70" ry="26"/>
    <ellipse cx="1420" cy="320" rx="100" ry="34"/>
  </g>
  <g stroke="#FF9F43" stroke-width="3" fill="none" stroke-linecap="round" opacity="0.25">
    <path d="M200 480 Q240 440 280 480 T360 480"/>
    <path d="M1500 420 Q1540 380 1580 420 T1660 420"/>
  </g>
</svg>
